<?xml version="1.0" encoding="utf-8"?>
<!-- Generator: Adobe Illustrator 24.1.1, SVG Export Plug-In . SVG Version: 6.00 Build 0)  -->
<svg version="1.1" xmlns="http://www.w3.org/2000/svg" xmlns:xlink="http://www.w3.org/1999/xlink" x="0px" y="0px"
	 viewBox="0 0 350 350" xml:space="preserve">
<g>
	<path d="M269.1,267.19c2.53,5.16,6.77,8.43,10.81,11.81c7.53,6.3,15.33,12.28,22.83,18.62
		c5.8,4.91,11.51,9.97,15.52,16.9c-2.12,0.51-3.77,0.93-5.13-0.47c-8.4-8.75-19.54-13.03-29.99-18.44
		c-6.64-3.44-13.33-6.8-19.19-11.54c-5.83-4.71-10.33-10.32-12.12-17.8c-1.42-5.96-1.13-6.57,4.82-7.67
		c12.36-2.28,24.58-5.39,38.02-5.76c-1.82-2.22-2.86-4.26-4.51-5.37c-10.02-6.77-19.18-14.93-30.58-19.5
		c-8.78-3.52-17.59-6.98-26.47-10.24c-3.05-1.12-4.79-2.94-6.17-5.86c-11.41-24.16-21.54-48.93-34.77-72.23
		c-13.29-23.4-30.45-43.15-53.11-57.93c-14.31-9.33-29.37-16.4-46.99-15.28c-7.52,0.48-13.47-2.54-19.17-6.87
		c-6.76-5.13-13.63-10.1-22.25-11.8c-5.73-1.13-8.1,1.21-6.95,6.9c1.02,5.05,3.19,9.61,6.85,13.06
		c10.5,9.86,15.95,22.34,19.29,35.94c2.86,11.62,7.26,22.29,15.36,31.42c5.2,5.87,6.55,12.57,3.91,20.75
		c-5.51,17.06-8.05,34.7-5,52.66c1.4,8.27,4.59,15.64,13.58,19.37c1.16-6.83,1.48-13.59,3.34-20.06c2-6.96,5.09-13.3,9.95-18.76
		c2.44-2.75,4.53-1.62,5.06,0.93c4.63,22.34,19.37,39.06,31.4,57.3c1.23,1.86,2.37,3.78,3.04,6.12
		c-8.63-4.45-15.79-10.57-22.04-17.81c-6.23-7.23-10.74-15.46-13.98-25.99c-2,8.44-3.68,15.35-5.28,22.28
		c-1.67,7.2-9.68,10.43-16.1,6.41c-9.82-6.15-14.73-15.51-17.05-26.48c-3.45-16.31-1.2-32.47,1.49-48.6
		c0.14-0.82,0.23-1.66,0.49-2.44c2.92-8.69,2.9-16.26-4.41-23.63c-5.06-5.1-6.72-12.89-8.52-19.98
		c-3.93-15.52-10.4-29.73-20.68-42.12c-1.91-2.3-3.19-5.17-5.28-7.25c-6.12-6.05-6.66-13.24-5.16-21.1
		c0.8-4.2,8.91-10.69,13.73-10.52c8.32,0.29,16.36,2.26,23,7.21c11.55,8.61,24.09,13.69,38.59,14.13
		c14.54,0.45,26.9,7.12,38.4,15.17c28.05,19.63,50.39,44.23,64.44,75.84c7.96,17.9,16.08,35.72,24.01,53.63
		c1.23,2.77,2.96,4.54,5.75,5.71c19.25,8.04,37.8,17.28,53.37,31.55c4.68,4.29,9,8.84,12.03,14.53c1.9,3.58,1.88,5.32-2.86,6.09
		c-10.66,1.74-21.22,4.05-31.82,6.16C271.51,266.4,270.44,266.8,269.1,267.19z"/>
	<path d="M105.27,95.62c0.24,2.03-0.14,4.51-2.52,5.56c-2.64,1.17-3.55-1.68-4.85-3.1c-2.59-2.83-4.46-6.16-5.65-9.83
		c-1.23-3.8,0.4-4.71,3.91-3.98C102.66,85.65,105.21,88.64,105.27,95.62z"/>
</g>
</svg>
